<?xml version="1.0" encoding="utf-8"?>
<!-- Generator: Adobe Illustrator 23.0.5, SVG Export Plug-In . SVG Version: 6.00 Build 0)  -->
<svg version="1.1" xmlns="http://www.w3.org/2000/svg" xmlns:xlink="http://www.w3.org/1999/xlink" x="0px" y="0px"
	 viewBox="0 0 270 150" style="enable-background:new 0 0 270 150;" xml:space="preserve">
<style type="text/css">
	.st0{opacity:0.64;fill:#DCDEE4;}
	.st1{fill:url(#SVGID_1_);}
	.st2{fill:#AB00FF;}
	.st3{fill:#FFFFFF;}
	.st4{font-family:'MyriadPro-Bold';}
	.st5{font-size:28px;}
	.st6{font-size:11px;}
	.st7{fill:url(#SVGID_2_);}
	.st8{display:none;}
	.st9{display:inline;}
	.st10{font-size:20px;}
	.st11{fill:url(#SVGID_3_);}
	.st12{fill:#00A9DE;}
	.st13{fill:url(#SVGID_4_);}
	.st14{fill:url(#SVGID_5_);}
	.st15{fill:#BD0048;}
	.st16{fill:url(#SVGID_6_);}
	.st17{fill:url(#SVGID_7_);}
	.st18{fill:url(#SVGID_8_);}
	.st19{fill:#00FF00;}
	.st20{fill:url(#SVGID_9_);}
	.st21{fill:url(#SVGID_10_);}
	.st22{fill:#FE9D00;}
</style>
<g id="ts">
	<g>
		<path class="st0" d="M52.5,28.5C26.8,28.5,6,49.3,6,75c0,25.7,20.8,46.5,46.5,46.5S99,100.7,99,75C99,49.3,78.2,28.5,52.5,28.5z
			 M52.5,99.2c-13.4,0-24.2-10.8-24.2-24.2s10.8-24.2,24.2-24.2S76.7,61.6,76.7,75S65.9,99.2,52.5,99.2z"/>
		<linearGradient id="SVGID_1_" gradientUnits="userSpaceOnUse" x1="9.72" y1="75" x2="95.28" y2="75">
			<stop  offset="0" style="stop-color:#277AFF"/>
			<stop  offset="1.026452e-02" style="stop-color:#2978FF"/>
			<stop  offset="0.2421" style="stop-color:#574DFF"/>
			<stop  offset="0.4636" style="stop-color:#7C2CFF"/>
			<stop  offset="0.6698" style="stop-color:#9614FF"/>
			<stop  offset="0.8547" style="stop-color:#A505FF"/>
			<stop  offset="1" style="stop-color:#AB00FF"/>
		</linearGradient>
		<path class="st1" d="M53.6,117.8c23.6-0.6,42.3-20.3,41.7-43.9C94.7,50.3,75,31.6,51.4,32.2C27.8,32.8,9.1,52.5,9.7,76.1
			C10.3,99.7,30,118.4,53.6,117.8z M51.8,47.1C67.2,46.7,80,58.9,80.4,74.3c0.4,15.4-11.8,28.2-27.2,28.6
			C37.8,103.3,25,91.1,24.6,75.7C24.2,60.3,36.4,47.5,51.8,47.1z"/>
		<g>
			<path class="st2" d="M40.2,70.8v8.3h-1v-7.5h-2v-0.9H40.2z"/>
			<path class="st2" d="M50,75c0,2.7-1.1,4.2-3.1,4.2c-2,0-3.1-1.5-3.1-4.2c0-2.7,1.1-4.2,3.1-4.2C48.9,70.8,50,72.3,50,75z
				 M44.8,75c0,2.3,0.7,3.4,2.1,3.4c1.4,0,2.1-1.2,2.1-3.4c0-2.3-0.7-3.4-2.1-3.4C45.5,71.6,44.8,72.7,44.8,75z"/>
			<path class="st2" d="M57.3,75c0,2.7-1.1,4.2-3.1,4.2c-2,0-3.1-1.5-3.1-4.2c0-2.7,1.1-4.2,3.1-4.2C56.2,70.8,57.3,72.3,57.3,75z
				 M52.1,75c0,2.3,0.7,3.4,2.1,3.4c1.4,0,2.1-1.2,2.1-3.4c0-2.3-0.7-3.4-2.1-3.4C52.8,71.6,52.1,72.7,52.1,75z"/>
			<path class="st2" d="M62.7,73.3c0,1.6-0.8,2.5-2.1,2.5c-1.3,0-2.1-0.9-2.1-2.5c0-1.5,0.8-2.5,2.1-2.5
				C61.9,70.8,62.7,71.7,62.7,73.3z M59.1,73.3c0,1.2,0.5,1.9,1.5,1.9c0.9,0,1.5-0.7,1.5-1.9c0-1.2-0.5-1.9-1.5-1.9
				C59.6,71.4,59.1,72.1,59.1,73.3z M67,70.8l-6.2,8.3h-0.9l6.2-8.3H67z M68.6,76.7c0,1.6-0.8,2.5-2.1,2.5c-1.3,0-2.1-0.9-2.1-2.5
				c0-1.5,0.8-2.5,2.1-2.5C67.8,74.3,68.6,75.2,68.6,76.7z M65,76.7c0,1.2,0.5,1.9,1.5,1.9c0.9,0,1.5-0.7,1.5-1.9
				c0-1.2-0.5-1.9-1.5-1.9C65.5,74.9,65,75.5,65,76.7z"/>
		</g>
		<text transform="matrix(1 0 0 1 107.8652 70.9731)" class="st3 st4 st5">Total Supply </text>
		<text transform="matrix(1 0 0 1 110.8652 92.9731)" class="st3 st4 st6">1,000,000,000,000,000 QBANKX</text>
		<linearGradient id="SVGID_2_" gradientUnits="userSpaceOnUse" x1="109" y1="79" x2="242" y2="79">
			<stop  offset="0" style="stop-color:#277AFF"/>
			<stop  offset="1.026452e-02" style="stop-color:#2978FF"/>
			<stop  offset="0.2421" style="stop-color:#574DFF"/>
			<stop  offset="0.4636" style="stop-color:#7C2CFF"/>
			<stop  offset="0.6698" style="stop-color:#9614FF"/>
			<stop  offset="0.8547" style="stop-color:#A505FF"/>
			<stop  offset="1" style="stop-color:#AB00FF"/>
		</linearGradient>
		<rect x="112" y="78" class="st7" width="137" height="2"/>
	</g>
</g>
<g id="Sr" class="st8">
	<g class="st9">
		<text transform="matrix(1 0 0 1 108.8652 70.9731)" class="st3 st4 st10">Seed Round </text>
		<text transform="matrix(1 0 0 1 110.8652 92.9731)" class="st3 st4 st6">100,000,000,000,000 QBANKX</text>
		<linearGradient id="SVGID_3_" gradientUnits="userSpaceOnUse" x1="109" y1="79" x2="242" y2="79">
			<stop  offset="0" style="stop-color:#00EBBA"/>
			<stop  offset="1" style="stop-color:#00A9DE"/>
		</linearGradient>
		<rect x="109" y="78" class="st11" width="133" height="2"/>
	</g>
	<g class="st9">
		<g>
			<path class="st0" d="M52.5,29.9C27.3,29.9,7,50.3,7,75.4C7,100.6,27.3,121,52.5,121S98,100.6,98,75.4
				C98,50.3,77.6,29.9,52.5,29.9z M52.5,99.1c-13.1,0-23.7-10.6-23.7-23.7s10.6-23.7,23.7-23.7c13.1,0,23.7,10.6,23.7,23.7
				S65.5,99.1,52.5,99.1z"/>
			<g>
				<path class="st12" d="M44,71.2v8.2h-0.9v-7.3h-1.9v-0.9H44z"/>
				<path class="st12" d="M53.6,75.3c0,2.6-1.1,4.1-3,4.1c-1.9,0-3-1.5-3-4.1c0-2.6,1.1-4.1,3-4.1C52.5,71.2,53.6,72.6,53.6,75.3z
					 M48.5,75.3c0,2.2,0.7,3.4,2.1,3.4c1.4,0,2.1-1.1,2.1-3.4c0-2.2-0.7-3.3-2.1-3.3C49.2,71.9,48.5,73,48.5,75.3z"/>
				<path class="st12" d="M58.8,73.6c0,1.5-0.8,2.4-2.1,2.4c-1.3,0-2.1-0.9-2.1-2.4c0-1.5,0.8-2.4,2.1-2.4
					C58.1,71.2,58.8,72.1,58.8,73.6z M55.3,73.6c0,1.2,0.5,1.8,1.4,1.8c0.9,0,1.4-0.7,1.4-1.8s-0.5-1.8-1.4-1.8
					C55.8,71.8,55.3,72.4,55.3,73.6z M63.1,71.2L57,79.4h-0.9l6.1-8.2H63.1z M64.7,77c0,1.5-0.8,2.4-2.1,2.4c-1.3,0-2.1-0.9-2.1-2.4
					c0-1.5,0.8-2.4,2.1-2.4C63.9,74.6,64.7,75.5,64.7,77z M61.1,77c0,1.2,0.5,1.8,1.4,1.8c0.9,0,1.4-0.7,1.4-1.8s-0.5-1.8-1.4-1.8
					C61.7,75.1,61.1,75.8,61.1,77z"/>
			</g>
		</g>
		<linearGradient id="SVGID_4_" gradientUnits="userSpaceOnUse" x1="52.4756" y1="43.4585" x2="77.0929" y2="43.4585">
			<stop  offset="0" style="stop-color:#00EBBA"/>
			<stop  offset="1" style="stop-color:#00A9DE"/>
		</linearGradient>
		<path class="st13" d="M52.5,33.6v14.6c6,0,11.5,1.9,16.1,5.2l8.6-11.8C70.2,36.5,61.7,33.6,52.5,33.6z"/>
	</g>
</g>
<g id="pr" class="st8">
	<g class="st9">
		<path class="st0" d="M51.6,30C26.5,30,6.1,50.4,6.1,75.5c0,25.1,20.4,45.5,45.5,45.5c25.1,0,45.5-20.4,45.5-45.5
			C97.1,50.4,76.8,30,51.6,30z M51.6,99.2C38.6,99.2,28,88.6,28,75.5s10.6-23.7,23.7-23.7c13.1,0,23.7,10.6,23.7,23.7
			S64.7,99.2,51.6,99.2z"/>
		<linearGradient id="SVGID_5_" gradientUnits="userSpaceOnUse" x1="51.6254" y1="46.5466" x2="85.4914" y2="46.5466">
			<stop  offset="0" style="stop-color:#FF1F50"/>
			<stop  offset="1" style="stop-color:#BD0048"/>
		</linearGradient>
		<path class="st14" d="M51.6,33.6v14.6c9,0,17.1,4.4,22.1,11.2l11.8-8.6C77.9,40.4,65.5,33.6,51.6,33.6z"/>
		<g>
			<path class="st15" d="M43.1,71.3v8.2h-0.9v-7.3h-1.9v-0.9H43.1z"/>
			<path class="st15" d="M49.6,74.3c1.8,0,3,1,3,2.4c0,1.6-1.2,2.7-3,2.7c-1,0-2.1-0.3-2.9-0.9l0.4-0.8c0.7,0.5,1.6,0.8,2.4,0.8
				c1.3,0,2.1-0.7,2.1-1.8c0-1-0.8-1.6-2.1-1.6c-0.6,0-1.6,0.1-2.2,0.2v-4.2h5v0.9h-4.1v2.4C48.6,74.4,49.2,74.3,49.6,74.3z"/>
			<path class="st15" d="M58,73.7c0,1.5-0.8,2.4-2.1,2.4c-1.3,0-2.1-0.9-2.1-2.4c0-1.5,0.8-2.4,2.1-2.4C57.2,71.3,58,72.1,58,73.7z
				 M54.5,73.7c0,1.2,0.5,1.8,1.4,1.8c0.9,0,1.4-0.7,1.4-1.8c0-1.2-0.5-1.8-1.4-1.8C55,71.8,54.5,72.5,54.5,73.7z M62.2,71.3
				l-6.1,8.2h-0.9l6.1-8.2H62.2z M63.8,77c0,1.5-0.8,2.4-2.1,2.4c-1.3,0-2.1-0.9-2.1-2.4c0-1.5,0.8-2.4,2.1-2.4
				C63,74.6,63.8,75.5,63.8,77z M60.3,77c0,1.2,0.5,1.8,1.4,1.8c0.9,0,1.4-0.7,1.4-1.8s-0.5-1.8-1.4-1.8
				C60.8,75.2,60.3,75.9,60.3,77z"/>
		</g>
	</g>
	<g class="st9">
		<text transform="matrix(1 0 0 1 107.8652 70.9731)" class="st3 st4 st10">Private Round </text>
		<text transform="matrix(1 0 0 1 110.8652 92.9731)" class="st3 st4 st6">150,000,000,000,000 QBANKX</text>
		<linearGradient id="SVGID_6_" gradientUnits="userSpaceOnUse" x1="109" y1="79" x2="242" y2="79">
			<stop  offset="0" style="stop-color:#FF1F50"/>
			<stop  offset="1" style="stop-color:#BD0048"/>
		</linearGradient>
		<rect x="109" y="78" class="st16" width="133" height="2"/>
	</g>
</g>
<g id="public_r" class="st8">
	<g class="st9">
		<text transform="matrix(1 0 0 1 107.8652 70.9731)" class="st3 st4 st10">Public Round </text>
		<text transform="matrix(1 0 0 1 110.8652 92.9731)" class="st3 st4 st6">500,000,000,000,000 QBANKX</text>
		<linearGradient id="SVGID_7_" gradientUnits="userSpaceOnUse" x1="109" y1="79" x2="242" y2="79">
			<stop  offset="0" style="stop-color:#92FA00"/>
			<stop  offset="1" style="stop-color:#04700B"/>
		</linearGradient>
		<rect x="109" y="78" class="st17" width="133" height="2"/>
	</g>
	<g class="st9">
		<path class="st0" d="M50.8,30.1c-25.1,0-45.4,20.3-45.4,45.4c0,25.1,20.3,45.4,45.4,45.4s45.4-20.3,45.4-45.4
			C96.2,50.5,75.9,30.1,50.8,30.1z M50.8,99.2c-13.1,0-23.6-10.6-23.6-23.6s10.6-23.6,23.6-23.6s23.6,10.6,23.6,23.6
			S63.8,99.2,50.8,99.2z"/>
		<linearGradient id="SVGID_8_" gradientUnits="userSpaceOnUse" x1="50.7752" y1="75.5514" x2="92.5876" y2="75.5514">
			<stop  offset="0" style="stop-color:#92FA00"/>
			<stop  offset="1" style="stop-color:#04700B"/>
		</linearGradient>
		<path class="st18" d="M51.9,117.3c23.1-0.6,41.3-19.8,40.7-42.9C92,51.7,73.4,33.7,50.8,33.7v14.6C65.5,48.3,77.7,60,78,74.8
			c0.4,15.1-11.5,27.6-26.6,28c-0.2,0-0.5,0-0.7,0v14.6C51.1,117.4,51.5,117.4,51.9,117.3z"/>
		<g>
			<path class="st19" d="M41.6,74.4c1.8,0,3,1,3,2.4c0,1.6-1.2,2.7-3,2.7c-1,0-2.1-0.3-2.9-0.9l0.4-0.8c0.7,0.5,1.6,0.8,2.4,0.8
				c1.3,0,2.1-0.7,2.1-1.8c0-1-0.8-1.6-2.1-1.6c-0.6,0-1.6,0.1-2.2,0.2v-4.2h5v0.9h-4.1v2.4C40.6,74.4,41.2,74.4,41.6,74.4z"/>
			<path class="st19" d="M51.9,75.4c0,2.6-1.1,4.1-3,4.1c-1.9,0-3-1.5-3-4.1c0-2.6,1.1-4.1,3-4.1C50.8,71.3,51.9,72.8,51.9,75.4z
				 M46.8,75.4c0,2.2,0.7,3.4,2.1,3.4c1.4,0,2.1-1.1,2.1-3.4c0-2.2-0.7-3.3-2.1-3.3C47.5,72.1,46.8,73.2,46.8,75.4z"/>
			<path class="st19" d="M57.1,73.7c0,1.5-0.8,2.4-2.1,2.4c-1.3,0-2.1-0.9-2.1-2.4c0-1.5,0.8-2.4,2.1-2.4
				C56.4,71.3,57.1,72.2,57.1,73.7z M53.6,73.7c0,1.2,0.5,1.8,1.4,1.8c0.9,0,1.4-0.7,1.4-1.8c0-1.2-0.5-1.8-1.4-1.8
				C54.1,71.9,53.6,72.5,53.6,73.7z M61.4,71.3l-6.1,8.1h-0.9l6.1-8.1H61.4z M62.9,77.1c0,1.5-0.8,2.4-2.1,2.4
				c-1.3,0-2.1-0.9-2.1-2.4c0-1.5,0.8-2.4,2.1-2.4C62.2,74.7,62.9,75.6,62.9,77.1z M59.4,77.1c0,1.2,0.5,1.8,1.4,1.8
				c0.9,0,1.4-0.7,1.4-1.8s-0.5-1.8-1.4-1.8C59.9,75.2,59.4,75.9,59.4,77.1z"/>
		</g>
	</g>
</g>
<g id="ta" class="st8">
	<g class="st9">
		<text transform="matrix(1 0 0 1 110.8652 52.9731)"><tspan x="0" y="0" class="st3 st4 st10">Treasury </tspan><tspan x="0" y="18" class="st3 st4 st10">Allocation</tspan></text>
		<text transform="matrix(1 0 0 1 110.8652 92.9731)" class="st3 st4 st6">250,000,000,000,000 QBANKX</text>
		<linearGradient id="SVGID_9_" gradientUnits="userSpaceOnUse" x1="109" y1="79" x2="242" y2="79">
			<stop  offset="0" style="stop-color:#DED700"/>
			<stop  offset="1" style="stop-color:#FE9D00"/>
		</linearGradient>
		<rect x="109" y="78" class="st20" width="133" height="2"/>
	</g>
	<g class="st9">
		<path class="st0" d="M50.5,31.2C26,31.2,6.1,51.1,6.1,75.6C6.1,100.1,26,120,50.5,120s44.4-19.9,44.4-44.4
			C94.9,51.1,75,31.2,50.5,31.2z M50.5,98.7c-12.7,0-23.1-10.3-23.1-23.1s10.3-23.1,23.1-23.1s23.1,10.3,23.1,23.1
			S63.3,98.7,50.5,98.7z"/>
		<linearGradient id="SVGID_10_" gradientUnits="userSpaceOnUse" x1="50.5244" y1="55.1813" x2="91.3689" y2="55.1813">
			<stop  offset="0" style="stop-color:#DED700"/>
			<stop  offset="1" style="stop-color:#FE9D00"/>
		</linearGradient>
		<path class="st21" d="M91.4,74.6c-0.6-22.2-18.8-39.8-40.8-39.8V49c14.4,0,26.3,11.5,26.6,25.9c0,0.2,0,0.5,0,0.7h14.2
			C91.4,75.3,91.4,74.9,91.4,74.6z"/>
		<g>
			<path class="st22" d="M43.1,73.5c0-0.8-0.6-1.3-1.7-1.3c-0.8,0-1.6,0.4-2.3,1l-0.4-0.7c0.8-0.7,1.8-1.1,2.8-1.1
				c1.5,0,2.5,0.8,2.5,2c0,0.8-0.6,1.7-1.5,2.6L40,78.6h4.5v0.8h-5.7v-0.7l3.1-3.2C42.6,74.8,43.1,74,43.1,73.5z"/>
			<path class="st22" d="M48.6,74.5c1.8,0,2.9,1,2.9,2.3c0,1.6-1.2,2.6-3,2.6c-0.9,0-2-0.3-2.8-0.9l0.4-0.7c0.7,0.5,1.6,0.8,2.4,0.8
				c1.3,0,2.1-0.7,2.1-1.8c0-1-0.8-1.6-2.1-1.6c-0.6,0-1.6,0.1-2.2,0.2v-4.1h4.9v0.8h-4v2.3C47.6,74.5,48.2,74.5,48.6,74.5z"/>
			<path class="st22" d="M56.7,73.8c0,1.5-0.8,2.4-2,2.4c-1.3,0-2-0.9-2-2.4c0-1.5,0.8-2.4,2-2.4C56,71.5,56.7,72.3,56.7,73.8z
				 M53.3,73.8c0,1.1,0.5,1.8,1.4,1.8c0.9,0,1.4-0.6,1.4-1.8c0-1.1-0.5-1.8-1.4-1.8C53.8,72,53.3,72.7,53.3,73.8z M60.9,71.5l-5.9,8
				h-0.9l6-8H60.9z M62.4,77.1c0,1.5-0.8,2.3-2,2.3c-1.3,0-2-0.9-2-2.3c0-1.5,0.8-2.4,2-2.4C61.6,74.7,62.4,75.6,62.4,77.1z
				 M59,77.1c0,1.1,0.5,1.8,1.4,1.8c0.9,0,1.4-0.6,1.4-1.8c0-1.1-0.5-1.8-1.4-1.8C59.5,75.3,59,75.9,59,77.1z"/>
		</g>
	</g>
</g>
</svg>
